<?xml version="1.0" encoding="UTF-8" standalone="no"?>
<svg
   xmlns:dc="http://purl.org/dc/elements/1.1/"
   xmlns:cc="http://creativecommons.org/ns#"
   xmlns:rdf="http://www.w3.org/1999/02/22-rdf-syntax-ns#"
   xmlns:svg="http://www.w3.org/2000/svg"
   xmlns="http://www.w3.org/2000/svg"
   viewBox="0 0 5333.3335 5333.3335"
   height="5333.3335"
   width="5333.3335"
   xml:space="preserve"
   id="svg2"
   version="1.1"><metadata
     id="metadata8"><rdf:RDF><cc:Work
         rdf:about=""><dc:format>image/svg+xml</dc:format><dc:type
           rdf:resource="http://purl.org/dc/dcmitype/StillImage" /></cc:Work></rdf:RDF></metadata><defs
     id="defs6" /><g
     transform="matrix(1.3333333,0,0,-1.3333333,0,5333.3333)"
     id="g10"><g
       transform="scale(0.1)"
       id="g12"><g
         transform="scale(2.45399)"
         id="g14"><path
           id="path16"
           style="fill:none;fill-opacity:1;fill-rule:nonzero;stroke:none"
           d="M 16300,0 H 0 V 16300 H 16300 V 0" /></g><g transform="scale(2.14724)" id="g18">
        <path id="path20"
          style="fill:none;fill-opacity:1;fill-rule:nonzero;stroke:none"
          d="m 8255.62,16219.7 c 350.69,53.5 704.68,80.2 1058.67,80.1 v 0.2 c -959,0 -1872.83,-193.3 -2704.69,-543 292.89,122.8 592.44,224.8 896.41,305.9 247.34,66 497.62,118.3 749.61,156.8" />
      </g><g
         transform="scale(2.07496)"
         id="g22"><path
           id="path24"
           style="fill:#00b0dd;fill-opacity:1;fill-rule:nonzero;stroke:none"
           d="m 6793.34,16286.2 c 10.85,4.6 21.69,9.2 32.53,13.8 -10.84,-4.6 -21.73,-9.2 -32.53,-13.8" /></g><g
         transform="scale(2.0774)"
         id="g26"><path
           id="path28"
           style="fill:#19a090;fill-opacity:1;fill-rule:nonzero;stroke:none"
           d="m 12391.2,16300 c 7.8,-3.2 15.6,-6.5 23.4,-9.7 -7.8,3.2 -15.6,6.5 -23.4,9.7" /></g><g
         transform="scale(2.14724)"
         id="g30"><path
           id="path32"
           style="fill:#19a090;fill-opacity:1;fill-rule:nonzero;stroke:none"
           d="m 11122.6,16063 c 285.5,-76.2 567.2,-170.8 843,-283.8 -817.5,335.7 -1712.8,520.8 -2651.31,520.8 v -0.2 c 608.31,0 1216.71,-78.9 1808.31,-236.8" /></g><g
         transform="scale(1.5829)"
         id="g34"><path
           id="path36"
           style="fill:#3b5da1;fill-opacity:1;fill-rule:nonzero;stroke:none"
           d="m 3887.21,16284.5 c 2.16,5.1 4.35,10.3 6.51,15.5 -2.16,-5.2 -4.35,-10.4 -6.51,-15.5" /></g><g
         transform="scale(1.57941)"
         id="g38"><path
           id="path40"
           style="fill:#3b5da1;fill-opacity:1;fill-rule:nonzero;stroke:none"
           d="m 3488.03,15121.3 c 106.63,399.5 239.76,793.2 399.3,1178.7 -464.88,-1120.2 -721.59,-2348.7 -721.59,-3637.1 h 0.22 c 0,827.1 107.35,1654.1 322.07,2458.4" /></g><g
         transform="scale(2.14724)"
         id="g42"><path
           id="path44"
           style="fill:#a1c048;fill-opacity:1;fill-rule:nonzero;stroke:none"
           d="m 16299.9,9314.29 h 0.1 c 0,918.11 -177.2,1794.91 -499.2,2597.91 103.5,-258.7 190.9,-522.5 262.2,-789.6 157.9,-591.6 236.9,-1200 236.9,-1808.31" /></g><g
         transform="scale(2.0798)"
         id="g46"><path
           id="path48"
           style="fill:#a1c048;fill-opacity:1;fill-rule:nonzero;stroke:none"
           d="m 16294.2,12345.2 c 2,-4.7 3.9,-9.4 5.8,-14.1 -1.9,4.7 -3.8,9.4 -5.8,14.1" /></g><g
         transform="scale(1.58579)"
         id="g50"><path
           id="path52"
           style="fill:#db7f31;fill-opacity:1;fill-rule:nonzero;stroke:none"
           d="m 12612,3153.26 v -0.25 c 1308.4,0 2554.7,265.8 3688,746.13 -404.7,-171.14 -819,-312.9 -1239.4,-425.15 -801.2,-213.84 -1624.9,-320.79 -2448.6,-320.73" /></g><g
         transform="scale(2.14724)"
         id="g54"><path
           id="path56"
           style="fill:#e9d019;fill-opacity:1;fill-rule:nonzero;stroke:none"
           d="m 16219.7,8255.62 c -38.5,-251.99 -90.8,-502.27 -156.8,-749.61 -75.7,-283.76 -169.6,-563.61 -281.7,-837.82 102.1,249.16 190.2,505.53 263.4,768.15 166.3,597.56 255.4,1227.34 255.4,1877.95 h -0.1 c 0,-353.99 -26.8,-707.98 -80.2,-1058.67" /></g><g
         transform="scale(2.07828)"
         id="g58"><path
           id="path60"
           style="fill:#e9d019;fill-opacity:1;fill-rule:nonzero;stroke:none"
           d="m 16293.6,6862.06 c 2.1,5.15 4.3,10.3 6.4,15.45 -2.1,-5.15 -4.3,-10.3 -6.4,-15.45" /></g><g
         transform="scale(1.22699)"
         id="g62"><path
           id="path64"
           style="fill:#dc545b;fill-opacity:1;fill-rule:nonzero;stroke:none"
           d="m 13135.5,4489.91 c -374.5,99.92 -745.1,217.85 -1110.5,353.96 -135.7,50.53 -270.5,103.59 -404.6,159.09 C 13061.8,4405.16 14642.3,4075 16300,4075 v 0.32 c -1064.6,0 -2129.1,138.15 -3164.5,414.59" /></g><g
         transform="scale(1.22699)"
         id="g66"><path
           id="path68"
           style="fill:#a05094;fill-opacity:1;fill-rule:nonzero;stroke:none"
           d="M 4489.88,13135.5 C 4213.5,14170.9 4075.3,15235.4 4075.29,16300 H 4075 c 0,-1138.6 155.86,-2240.7 447.04,-3286.4 124.16,-446 273.04,-881.6 444.95,-1305.4 -42.53,105.1 -83.6,210.7 -123.1,316.8 -136.11,365.4 -254.06,736 -354.01,1110.5" /></g><g
         transform="scale(2.07616)"
         id="g70"><path
           id="path72"
           style="fill:#00b0dd;fill-opacity:1;fill-rule:nonzero;stroke:none"
           d="m 14741.8,14741.8 0.1,0.1 c -686.3,686.4 -1476.4,1205.7 -2319.8,1558.1 284.3,-119.1 559.5,-255.9 824,-409 548.2,-317.1 1050.8,-704.3 1495.7,-1149.2" /></g><g
         transform="scale(2.07863)"
         id="g74"><path
           id="path76"
           style="fill:#00b0dd;fill-opacity:1;fill-rule:nonzero;stroke:none"
           d="m 12360.6,16300 c 7.8,-3.2 15.5,-6.4 23.3,-9.6 -7.8,3.2 -15.5,6.4 -23.3,9.6" /></g><g
         transform="scale(2.11602)"
         id="g78"><path
           id="path80"
           style="fill:#f2652d;fill-opacity:1;fill-rule:nonzero;stroke:none"
           d="m 9451.72,9451.72 3544.88,6139.98 c -259.5,150.2 -529.5,284.4 -808.5,401.3 -7.7,3.2 -15.4,6.4 -23,9.5 -7.7,3.2 -15.2,6.4 -22.9,9.5 -280,114.6 -565.7,210.7 -855.5,288 L 9451.72,9451.72" /></g><g
         transform="scale(2.02407)"
         id="g82"><path
           id="path84"
           style="fill:#f2732e;fill-opacity:1;fill-rule:nonzero;stroke:none"
           d="M 13587,16300 9881.08,9881.08 15121.2,15121.1 c -456.4,456.4 -971.9,853.5 -1534.2,1178.9" /></g><g
         transform="scale(2.07906)"
         id="g86"><path
           id="path88"
           style="fill:#19a090;fill-opacity:1;fill-rule:nonzero;stroke:none"
           d="m 15435.8,13889.6 c 156,-212.1 300.6,-433.1 433,-661.9 162.7,-281.3 307,-574.5 431.2,-878.1 -352.1,862.9 -878.3,1671.4 -1578.6,2371.8 l -0.2,-0.2 c 258.5,-258.5 497.6,-536.5 714.6,-831.6" /></g><g
         transform="scale(2.08147)"
         id="g90"><path
           id="path92"
           style="fill:#19a090;fill-opacity:1;fill-rule:nonzero;stroke:none"
           d="m 16286.9,12321.2 c 4.4,-10.9 8.8,-21.7 13.1,-32.6 -4.3,10.9 -8.7,21.7 -13.1,32.6" /></g><g
         transform="scale(2.02406)"
         id="g94"><path
           id="path96"
           style="fill:#f69222;fill-opacity:1;fill-rule:nonzero;stroke:none"
           d="m 15855.3,14267 c -223,303.2 -468.6,588.7 -734.1,854.2 L 9881.12,9881.12 16300,13587.1 c -136,235.1 -284.5,462 -444.7,679.9" /></g><g
         transform="scale(2.11602)"
         id="g98"><path
           id="path100"
           style="fill:#f9a51f;fill-opacity:1;fill-rule:nonzero;stroke:none"
           d="M 9451.71,9451.71 16300,11286.7 c -72.4,271.1 -161.1,538.7 -266.1,801.3 -4.3,10.7 -8.6,21.3 -12.9,32 -1.9,4.7 -3.8,9.3 -5.7,13.9 -122,298.3 -263.8,586.4 -423.7,862.7 L 9451.71,9451.71" /></g><g
         transform="scale(2.07571)"
         id="g102"><path
           id="path104"
           style="fill:#3b5da1;fill-opacity:1;fill-rule:nonzero;stroke:none"
           d="m 6823.4,16294.1 c 4.68,2 9.3,3.9 13.98,5.9 -4.68,-2 -9.3,-3.9 -13.98,-5.9" /></g><g
         transform="scale(2.0732)"
         id="g106"><path
           id="path108"
           style="fill:#3b5da1;fill-opacity:1;fill-rule:nonzero;stroke:none"
           d="m 6028.8,15913.7 c 247.83,143.5 504.97,272.6 770.31,386.3 -823.95,-352.3 -1595.84,-864.6 -2268.23,-1537 l 0.15,-0.2 c 445.53,445.5 948.81,833.3 1497.77,1150.9" /></g><g
         transform="scale(2.11601)"
         id="g110"><path
           id="path112"
           style="fill:#a51e22;fill-opacity:1;fill-rule:nonzero;stroke:none"
           d="M 9451.76,9451.76 7616.79,16300 c -308.45,-82.3 -612.42,-185.8 -909.63,-310.4 -4.59,-1.9 -9.12,-3.9 -13.71,-5.8 -10.63,-4.5 -21.26,-9 -31.9,-13.6 -259.97,-111.4 -511.9,-237.9 -754.72,-378.4 L 9451.76,9451.76" /></g><g
         transform="scale(2.02407)"
         id="g114"><path
           id="path116"
           style="fill:#942126;fill-opacity:1;fill-rule:nonzero;stroke:none"
           d="M 4641.01,15121.1 9881.08,9881.08 6175.13,16300 c -562.28,-325.4 -1077.78,-722.5 -1534.12,-1178.9" /></g><g
         transform="scale(2.14722)"
         id="g118"><path
           id="path120"
           style="fill:#d94720;fill-opacity:1;fill-rule:nonzero;stroke:none"
           d="m 8255.7,16219.8 c -252,-38.4 -502.28,-90.7 -749.62,-156.7 L 9314.37,9314.37 V 16300 c -353.99,0 -707.98,-26.7 -1058.67,-80.2" /></g><g
         transform="scale(2.14722)"
         id="g122"><path
           id="path124"
           style="fill:#ec4e2b;fill-opacity:1;fill-rule:nonzero;stroke:none"
           d="M 9314.37,16300 V 9314.37 l 1808.33,6748.73 c -591.6,158 -1200,236.9 -1808.33,236.9" /></g><g
         transform="scale(2.14722)"
         id="g126"><path
           id="path128"
           style="fill:#fcb71b;fill-opacity:1;fill-rule:nonzero;stroke:none"
           d="M 16063.1,11122.7 9314.37,9314.37 H 16300 c 0,608.32 -78.9,1216.73 -236.9,1808.33" /></g><g
         transform="scale(2.14722)"
         id="g130"><path
           id="path132"
           style="fill:#ffce10;fill-opacity:1;fill-rule:nonzero;stroke:none"
           d="M 16300,9314.37 H 9314.37 L 16063,7506.07 c 66.1,247.35 118.4,497.63 156.8,749.63 53.5,350.68 80.2,704.67 80.2,1058.67" /></g><g
         transform="scale(2.07746)"
         id="g134"><path
           id="path136"
           style="fill:#a1c048;fill-opacity:1;fill-rule:nonzero;stroke:none"
           d="m 14732.6,4521.72 0.1,-0.14 c 692.6,692.62 1215,1491.05 1567.3,2343.2 -121.4,-293.01 -261.6,-576.28 -419,-848.35 -316.9,-547.83 -703.8,-1050.13 -1148.4,-1494.71" /></g><g
         transform="scale(2.0789)"
         id="g138"><path
           id="path140"
           style="fill:#a1c048;fill-opacity:1;fill-rule:nonzero;stroke:none"
           d="m 16300,6887.39 c -1.6,-3.95 -3.2,-7.94 -4.9,-11.93 1.7,3.99 3.3,7.98 4.9,11.93" /></g><g
         transform="scale(2.11601)"
         id="g142"><path
           id="path144"
           style="fill:#e2c31b;fill-opacity:1;fill-rule:nonzero;stroke:none"
           d="m 16014.2,6766.62 c 113.7,278.25 209,562.23 285.8,850.18 L 9451.77,9451.77 15591.7,5906.83 c 154.6,267.11 292.2,545.23 411.4,832.89 2.1,5.06 4.2,10.12 6.3,15.18 1.6,3.92 3.2,7.84 4.8,11.72" /></g><g
         transform="scale(2.02406)"
         id="g146"><path
           id="path148"
           style="fill:#a1af36;fill-opacity:1;fill-rule:nonzero;stroke:none"
           d="M 16300,6175.16 9881.12,9881.12 15121.2,4641.02 c 456.4,456.31 853.5,971.85 1178.8,1534.14" /></g><path
         id="path150"
         style="fill:#db7f31;fill-opacity:1;fill-rule:nonzero;stroke:none"
         d="M 12498.9,7007.8 C 11360.8,7666.3 10317.3,8470 9393.65,9393.7 l -0.25,-0.3 c 1438.1,-1438.1 3095.6,-2522.8 4864.7,-3254.8 -164.3,68.1 -327.2,139.1 -488.5,212.8 -435.1,199 -859.1,418.2 -1270.7,656.4" /><g
         transform="scale(1.22699)"
         id="g152"><path
           id="path154"
           style="fill:#1b75b1;fill-opacity:1;fill-rule:nonzero;stroke:none"
           d="M 10186.6,5711.36 16300,16300 7655.83,7655.87 C 8408.6,6903.05 9259.05,6248.03 10186.6,5711.36" /></g><g
         transform="scale(1.22699)"
         id="g156"><path
           id="path158"
           style="fill:#2e748e;fill-opacity:1;fill-rule:nonzero;stroke:none"
           d="M 13135.5,4489.91 16300,16300 10186.6,5711.36 c 335.5,-194.13 681,-372.79 1035.6,-534.97 131.5,-60.07 264.2,-117.93 398.2,-173.43 134.1,-55.5 268.9,-108.56 404.6,-159.09 365.4,-136.11 736,-254.04 1110.5,-353.96" /></g><g
         transform="scale(1.87771)"
         id="g160"><path
           id="path162"
           style="fill:#e9d019;fill-opacity:1;fill-rule:nonzero;stroke:none"
           d="m 14646.1,3732.11 c -219.2,-126.86 -445,-243.6 -676.7,-349.58 -67.3,-30.78 -135.2,-60.6 -203.5,-89.58 275.3,116.42 545.5,248.93 809,397.67 617.7,348.67 1199,785.91 1725.1,1311.98 l -0.2,0.16 C 15808,4510.82 15252.2,4082.8 14646.1,3732.11" /></g><g
         transform="scale(1.68718)"
         id="g164"><path
           id="path166"
           style="fill:#519b46;fill-opacity:1;fill-rule:nonzero;stroke:none"
           d="m 16300,4153.55 -4445.9,7700.55 2301.3,-8588.9 c 395.2,105.51 784.6,238.75 1165,399.6 76,32.25 151.5,65.44 226.5,99.7 257.8,117.94 509.1,247.87 753.1,389.05" /></g><g
         transform="scale(1.87769)"
         id="g168"><path
           id="path170"
           style="fill:#74a440;fill-opacity:1;fill-rule:nonzero;stroke:none"
           d="m 16300,5002.81 -5648.6,5648.59 3994.9,-6919.26 c 606.1,350.7 1161.8,778.73 1653.7,1270.67" /></g><g
         transform="scale(1.4652)"
         id="g172"><path
           id="path174"
           style="fill:#3c744f;fill-opacity:1;fill-rule:nonzero;stroke:none"
           d="M 16300,3759.89 13650,13650 V 3412.77 c 891.5,-0.07 1783,115.68 2650,347.12" /></g><g
         transform="scale(1.22699)"
         id="g176"><path
           id="path178"
           style="fill:#36736e;fill-opacity:1;fill-rule:nonzero;stroke:none"
           d="M 16300,4075.32 V 16300 L 13135.5,4489.91 c 1035.4,-276.44 2099.9,-414.59 3164.5,-414.59" /></g><g
         transform="scale(1.4652)"
         id="g180"><path
           id="path182"
           style="fill:#373c97;fill-opacity:1;fill-rule:nonzero;stroke:none"
           d="M 3412.74,13650 H 13650 l -9890.08,2650 c -231.47,-867 -347.18,-1758.5 -347.18,-2650" /></g><g
         transform="scale(1.22699)"
         id="g184"><path
           id="path186"
           style="fill:#434590;fill-opacity:1;fill-rule:nonzero;stroke:none"
           d="M 4489.88,13135.5 16300,16300 H 4075.29 c 0.01,-1064.6 138.21,-2129.1 414.59,-3164.5" /></g><path
         id="path188"
         style="fill:#dc545b;fill-opacity:1;fill-rule:nonzero;stroke:none"
         d="m 7007.76,12498.9 v 0 c -345.7,597.5 -651.3,1221.1 -913.29,1867 732.2,-1809.6 1831.67,-3505.2 3298.93,-4972.5 l 0.25,0.3 c -923.65,923.6 -1727.4,1967.1 -2385.89,3105.2" /><g
         transform="scale(1.22699)"
         id="g190"><path
           id="path192"
           style="fill:#2666a4;fill-opacity:1;fill-rule:nonzero;stroke:none"
           d="M 7655.83,7655.87 16300,16300 5711.33,10186.6 c 536.66,-927.55 1191.72,-1778 1944.5,-2530.73" /></g><g
         transform="scale(1.22699)"
         id="g194"><path
           id="path196"
           style="fill:#3b529e;fill-opacity:1;fill-rule:nonzero;stroke:none"
           d="M 5711.33,10186.6 16300,16300 4489.88,13135.5 c 99.95,-374.5 217.9,-745.1 354.01,-1110.5 39.5,-106.1 80.57,-211.7 123.1,-316.8 213.53,-526.4 462.59,-1034.6 744.34,-1521.6 v 0" /></g><g
         transform="scale(1.58139)"
         id="g198"><path
           id="path200"
           style="fill:#a05094;fill-opacity:1;fill-rule:nonzero;stroke:none"
           d="m 3882.46,16279.6 c 2.83,6.7 5.61,13.6 8.45,20.4 -2.84,-6.8 -5.63,-13.7 -8.45,-20.4" /></g><g
         transform="scale(1.87771)"
         id="g202"><path
           id="path204"
           style="fill:#a05094;fill-opacity:1;fill-rule:nonzero;stroke:none"
           d="m 4211.51,15379 c 240.33,326.8 505.03,634.6 791.26,920.8 l -0.17,0.2 c -526.09,-526.1 -963.32,-1107.4 -1311.98,-1725.1 -153.24,-271.5 -289.28,-550.1 -408.24,-834.1 131.14,312.4 281.52,614.6 449.72,905.3 146.63,253.4 306.72,498.1 479.41,732.9" /></g><g
         transform="scale(1.68718)"
         id="g206"><path
           id="path208"
           style="fill:#693364;fill-opacity:1;fill-rule:nonzero;stroke:none"
           d="M 11854.1,11854.1 4153.54,16300 c -187.19,-323.6 -354.55,-659.9 -500.5,-1007.5 -2.03,-4.9 -4.08,-9.8 -6.1,-14.6 -2.67,-6.4 -5.27,-12.8 -7.92,-19.1 -149.35,-360.8 -273.98,-729.4 -373.79,-1103.4 l 8588.87,-2301.3" /></g><g
         transform="scale(1.87769)"
         id="g210"><path
           id="path212"
           style="fill:#912f60;fill-opacity:1;fill-rule:nonzero;stroke:none"
           d="m 4211.55,15379.2 c -172.69,-234.9 -332.77,-479.5 -479.41,-732.9 L 10651.4,10651.4 5002.83,16300 c -286.24,-286.2 -550.94,-594 -791.28,-920.8" /></g></g></g></svg>